@startuml
'=====================DEFINE========================
!define FOLDER_TEST_SERVICE_ISOWNEROREDITOR
'=====================IMPORT========================
!include ../../GlobalSettings.puml
!include ../../common/Mediatr.puml
!include ../../common/EndpointClasses.puml
!include ../../common/IApplicationDbContext.puml
!include ../Service/IFolderTestService.puml
!include ../../common/service/IUser.puml
'=====================COMMAND========================
class UpdateFolderCommand {
    + FolderId : Guid?
    + Name : string
}

class UpdateFolderCommandHandler {
    -  _context : IApplicationDbContext
    -  _folderTestService : IFolderTestService
    -  _user : IUser
    + UpdateFolderCommandHandler(context:IApplicationDbContext, folderTestService:IFolderTestService, user:IUser)
    +  Handle(request:UpdateFolderCommand, cancellationToken:CancellationToken) : Task<Guid>
}

'=====================ENDPOINT========================
class FolderEndpoints  {
    +  UpdateFolder(folderId:Guid, rq:UpdateFolderCommand, sender:ISender) : Task<Ok<ApiResponse<Guid>>>
}
'=====================RELATIONSHIP========================
!include ./zCommon.puml
UpdateFolderCommand ..|> IRequest : <<implements>>
UpdateFolderCommandHandler ..> UpdateFolderCommand :  <<uses>>
FolderEndpoints ..> UpdateFolderCommand : <<uses>>
UpdateFolderCommandHandler ..|> IRequestHandler : <<implements>>

'=====INJECT
UpdateFolderCommandHandler ..> IApplicationDbContext : <<inject>>
UpdateFolderCommandHandler ..> IFolderTestService : <<inject>>
UpdateFolderCommandHandler ..> IUser : <<inject>>
'=====INJECT
@enduml