@startuml

'=====================DEFINE========================
!define CLASS_SERVICE_ISLECTUREROROWNERINCLASS
'=====================IMPORT========================
!include ../../GlobalSettings.puml
!include ../../common/Mediatr.puml
!include ../../common/EndpointClasses.puml
!include ../../common/IApplicationDbContext.puml
!include ../../common/service/IUser.puml
!include ../Service/IClassService.puml
'=====================COMMAND========================
class AddQuestionSetToClassCommand {
    + ClassId : Guid
    + QuestionSetId : Guid
}

class AddQuestionSetToClassCommandHandler {
    -  _context : IApplicationDbContext
    -  _classService : IClassService
    -  _user : IUser
    + AddQuestionSetToClassCommandHandler(context:IApplicationDbContext, classService:IClassService, user:IUser)
    +  Handle(request:AddQuestionSetToClassCommand, cancellationToken:CancellationToken) : Task<Guid>
}

'=====================ENDPOINT========================
class ClassEndpoints  {
    +  AddQuestionSet(classId:Guid, questionSetId:Guid, sender:ISender) : Task<Ok<ApiResponse<Guid>>>
}
'=====================RELATIONSHIP========================
!include zCommon.puml
AddQuestionSetToClassCommand ..|> IRequest : <<implements>>
AddQuestionSetToClassCommandHandler ..> AddQuestionSetToClassCommand :  <<uses>>
ClassEndpoints ..> AddQuestionSetToClassCommand : <<uses>>
AddQuestionSetToClassCommandHandler ..|> IRequestHandler : <<implements>>

'=====INJECT
AddQuestionSetToClassCommandHandler ..> IApplicationDbContext : <<inject>>
AddQuestionSetToClassCommandHandler ..> IClassService : <<inject>>
AddQuestionSetToClassCommandHandler ..> IUser : <<inject>>
'=====INJECT
@enduml