@startuml

'=====================DEFINE========================

'=====================IMPORT========================
!include ../../GlobalSettings.puml
!include ../../common/Mediatr.puml
!include ../../common/EndpointClasses.puml
!include ../../common/IApplicationDbContext.puml
!include ../../common/service/IUser.puml
'=====================COMMAND========================
class JoinClassByCodeCommand {
    + Code : string
}

class JoinClassByCodeCommandHandler {
    -  _context : IApplicationDbContext
    -  _user : IUser
    + JoinClassByCodeCommandHandler(context:IApplicationDbContext, user:IUser)
    +  Handle(request:JoinClassByCodeCommand, cancellationToken:CancellationToken) : Task<Unit>
}

'=====================ENDPOINT========================
class ClassEndpoints  {
    +  JoinClassByCode(rq:JoinClassByCodeCommand, sender:ISender) : Task<Ok<ApiResponse<Unit>>>
}
'=====================RELATIONSHIP========================
!include zCommon.puml
JoinClassByCodeCommand ..|> IRequest : <<implements>>
JoinClassByCodeCommandHandler ..> JoinClassByCodeCommand :  <<uses>>
ClassEndpoints ..> JoinClassByCodeCommand : <<uses>>
JoinClassByCodeCommandHandler ..|> IRequestHandler : <<implements>>

'=====INJECT
JoinClassByCodeCommandHandler ..> IApplicationDbContext : <<inject>>
JoinClassByCodeCommandHandler ..> IUser : <<inject>>
'=====INJECT
@enduml