@startuml

'=====================DEFINE========================
!define CLASS_SERVICE_ISLECTUREROROWNERINCLASS
'=====================IMPORT========================
!include ../../GlobalSettings.puml
!include ../../common/Mediatr.puml
!include ../../common/EndpointClasses.puml
!include ../../common/IApplicationDbContext.puml
!include ../Service/IClassService.puml
'=====================COMMAND========================
class RemoveQuestionSetFromClassCommand {
    + ClassId : Guid
    + QuestionSetId : Guid
}

class RemoveQuestionSetFromClassCommandHandler {
    -  _context : IApplicationDbContext
    -  _classService : IClassService
    + RemoveQuestionSetFromClassCommandHandler(context:IApplicationDbContext, classService:IClassService)
    +  Handle(request:RemoveQuestionSetFromClassCommand, cancellationToken:CancellationToken) : Task<Guid>
}

'=====================ENDPOINT========================
class ClassEndpoints  {
    +  RemoveQuestionSet(classId:Guid, questionSetId:Guid, sender:ISender) : Task<Ok<ApiResponse<Guid>>>
}
'=====================RELATIONSHIP========================
!include zCommon.puml
RemoveQuestionSetFromClassCommand ..|> IRequest : <<implements>>
RemoveQuestionSetFromClassCommandHandler ..> RemoveQuestionSetFromClassCommand :  <<uses>>
ClassEndpoints ..> RemoveQuestionSetFromClassCommand : <<uses>>
RemoveQuestionSetFromClassCommandHandler ..|> IRequestHandler : <<implements>>

'=====INJECT
RemoveQuestionSetFromClassCommandHandler ..> IApplicationDbContext : <<inject>>
RemoveQuestionSetFromClassCommandHandler ..> IClassService : <<inject>>
'=====INJECT
@enduml