@startuml

'=====================DEFINE========================
!define COMMENT_SERVICE_CANCOMMENT_QUESTIONSET
'=====================IMPORT========================
!include ../../GlobalSettings.puml
!include ../../common/Mediatr.puml
!include ../../common/EndpointClasses.puml
!include ../../common/IApplicationDbContext.puml
!include ../Service/ICommentService.puml
'=====================COMMAND========================
class CreateCommentCommand {
    + QuestionId : Guid?
    + Content : string
}

class CreateCommentCommandHandler {
    -  _context : IApplicationDbContext
    -  _commentService : ICommentService
    + CreateCommentCommandHandler(context:IApplicationDbContext, commentService:ICommentService)
    +  Handle(request:CreateCommentCommand, cancellationToken:CancellationToken) : Task<Guid>
}

'=====================ENDPOINT========================
class CommentEndpoints  {
    +  CreateComment(rq:CreateCommentCommand, questionId:Guid, sender:ISender) : Task<Ok<ApiResponse<Guid>>>
}
'=====================RELATIONSHIP========================
!include zCommon.puml
CreateCommentCommand ..|> IRequest : <<implements>>
CreateCommentCommandHandler ..> CreateCommentCommand :  <<uses>>
CommentEndpoints ..> CreateCommentCommand : <<uses>>
CreateCommentCommandHandler ..|> IRequestHandler : <<implements>>

'=====INJECT
CreateCommentCommandHandler ..> IApplicationDbContext : <<inject>>
CreateCommentCommandHandler ..> ICommentService : <<inject>>
'=====INJECT
@enduml